<mxfile host="Electron" agent="Mozilla/5.0 (Windows NT 10.0; Win64; x64) AppleWebKit/537.36 (KHTML, like Gecko) draw.io/27.0.2 Chrome/134.0.6998.205 Electron/35.3.0 Safari/537.36" version="27.0.2">
  <diagram name="PÃ¡gina-1" id="eHMGA8pROg6O99Nr4oUC">
    <mxGraphModel dx="361" dy="832" grid="1" gridSize="10" guides="1" tooltips="1" connect="1" arrows="1" fold="1" page="1" pageScale="1" pageWidth="827" pageHeight="1169" math="0" shadow="0">
      <root>
        <mxCell id="0" />
        <mxCell id="1" parent="0" />
        <mxCell id="Ufr4is9PthtdORHLWl5A-3" style="edgeStyle=orthogonalEdgeStyle;rounded=0;orthogonalLoop=1;jettySize=auto;html=1;entryX=0;entryY=0.5;entryDx=0;entryDy=0;" edge="1" parent="1" source="Ufr4is9PthtdORHLWl5A-2" target="Ufr4is9PthtdORHLWl5A-4">
          <mxGeometry relative="1" as="geometry">
            <mxPoint x="300" y="180" as="targetPoint" />
          </mxGeometry>
        </mxCell>
        <mxCell id="Ufr4is9PthtdORHLWl5A-5" style="edgeStyle=orthogonalEdgeStyle;rounded=0;orthogonalLoop=1;jettySize=auto;html=1;entryX=0;entryY=0.5;entryDx=0;entryDy=0;" edge="1" parent="1" source="Ufr4is9PthtdORHLWl5A-2" target="Ufr4is9PthtdORHLWl5A-7">
          <mxGeometry relative="1" as="geometry">
            <mxPoint x="240" y="290" as="targetPoint" />
            <Array as="points">
              <mxPoint x="240" y="310" />
            </Array>
          </mxGeometry>
        </mxCell>
        <mxCell id="Ufr4is9PthtdORHLWl5A-20" style="edgeStyle=orthogonalEdgeStyle;rounded=0;orthogonalLoop=1;jettySize=auto;html=1;entryX=0;entryY=0.5;entryDx=0;entryDy=0;" edge="1" parent="1" source="Ufr4is9PthtdORHLWl5A-2" target="Ufr4is9PthtdORHLWl5A-67">
          <mxGeometry relative="1" as="geometry">
            <mxPoint x="240" y="990" as="targetPoint" />
            <Array as="points">
              <mxPoint x="240" y="960" />
            </Array>
          </mxGeometry>
        </mxCell>
        <mxCell id="Ufr4is9PthtdORHLWl5A-82" style="edgeStyle=orthogonalEdgeStyle;rounded=0;orthogonalLoop=1;jettySize=auto;html=1;entryX=0;entryY=0.5;entryDx=0;entryDy=0;" edge="1" parent="1" source="Ufr4is9PthtdORHLWl5A-2" target="Ufr4is9PthtdORHLWl5A-77">
          <mxGeometry relative="1" as="geometry">
            <mxPoint x="220" y="1570" as="targetPoint" />
            <Array as="points">
              <mxPoint x="240" y="1550" />
            </Array>
          </mxGeometry>
        </mxCell>
        <mxCell id="Ufr4is9PthtdORHLWl5A-2" value="UserMannagmentAPP" style="rounded=0;whiteSpace=wrap;html=1;" vertex="1" parent="1">
          <mxGeometry x="180" y="50" width="120" height="60" as="geometry" />
        </mxCell>
        <mxCell id="Ufr4is9PthtdORHLWl5A-4" value="UsermannagmentApp.pro" style="ellipse;whiteSpace=wrap;html=1;" vertex="1" parent="1">
          <mxGeometry x="350" y="130" width="180" height="80" as="geometry" />
        </mxCell>
        <mxCell id="Ufr4is9PthtdORHLWl5A-13" style="edgeStyle=orthogonalEdgeStyle;rounded=0;orthogonalLoop=1;jettySize=auto;html=1;entryX=0;entryY=0.5;entryDx=0;entryDy=0;" edge="1" parent="1" source="Ufr4is9PthtdORHLWl5A-7" target="Ufr4is9PthtdORHLWl5A-11">
          <mxGeometry relative="1" as="geometry">
            <Array as="points">
              <mxPoint x="390" y="410" />
            </Array>
          </mxGeometry>
        </mxCell>
        <mxCell id="Ufr4is9PthtdORHLWl5A-14" style="edgeStyle=orthogonalEdgeStyle;rounded=0;orthogonalLoop=1;jettySize=auto;html=1;entryX=0;entryY=0.5;entryDx=0;entryDy=0;" edge="1" parent="1" source="Ufr4is9PthtdORHLWl5A-7" target="Ufr4is9PthtdORHLWl5A-8">
          <mxGeometry relative="1" as="geometry" />
        </mxCell>
        <mxCell id="Ufr4is9PthtdORHLWl5A-15" style="edgeStyle=orthogonalEdgeStyle;rounded=0;orthogonalLoop=1;jettySize=auto;html=1;entryX=0;entryY=0.5;entryDx=0;entryDy=0;" edge="1" parent="1" source="Ufr4is9PthtdORHLWl5A-7" target="Ufr4is9PthtdORHLWl5A-10">
          <mxGeometry relative="1" as="geometry" />
        </mxCell>
        <mxCell id="Ufr4is9PthtdORHLWl5A-16" style="edgeStyle=orthogonalEdgeStyle;rounded=0;orthogonalLoop=1;jettySize=auto;html=1;entryX=0;entryY=0.5;entryDx=0;entryDy=0;" edge="1" parent="1" source="Ufr4is9PthtdORHLWl5A-7" target="Ufr4is9PthtdORHLWl5A-9">
          <mxGeometry relative="1" as="geometry" />
        </mxCell>
        <mxCell id="Ufr4is9PthtdORHLWl5A-18" style="edgeStyle=orthogonalEdgeStyle;rounded=0;orthogonalLoop=1;jettySize=auto;html=1;entryX=0;entryY=0.5;entryDx=0;entryDy=0;" edge="1" parent="1" source="Ufr4is9PthtdORHLWl5A-7" target="Ufr4is9PthtdORHLWl5A-17">
          <mxGeometry relative="1" as="geometry" />
        </mxCell>
        <mxCell id="Ufr4is9PthtdORHLWl5A-7" value="Batabase" style="rounded=1;whiteSpace=wrap;html=1;" vertex="1" parent="1">
          <mxGeometry x="330" y="280" width="120" height="60" as="geometry" />
        </mxCell>
        <mxCell id="Ufr4is9PthtdORHLWl5A-8" value="EmpresaDAO.h/EMpresaDAO.cpp" style="ellipse;whiteSpace=wrap;html=1;" vertex="1" parent="1">
          <mxGeometry x="414" y="670" width="196" height="80" as="geometry" />
        </mxCell>
        <mxCell id="Ufr4is9PthtdORHLWl5A-9" value="UsusarioDAO.h/UsarioDAO.cpp" style="ellipse;whiteSpace=wrap;html=1;" vertex="1" parent="1">
          <mxGeometry x="414" y="570" width="180" height="80" as="geometry" />
        </mxCell>
        <mxCell id="Ufr4is9PthtdORHLWl5A-10" value="Database.h/Database.cpp" style="ellipse;whiteSpace=wrap;html=1;" vertex="1" parent="1">
          <mxGeometry x="414" y="470" width="180" height="80" as="geometry" />
        </mxCell>
        <mxCell id="Ufr4is9PthtdORHLWl5A-11" value="Database.pro" style="ellipse;whiteSpace=wrap;html=1;" vertex="1" parent="1">
          <mxGeometry x="414" y="370" width="180" height="80" as="geometry" />
        </mxCell>
        <mxCell id="Ufr4is9PthtdORHLWl5A-17" value="DptDAO.h/DptDAO.cpp" style="ellipse;whiteSpace=wrap;html=1;" vertex="1" parent="1">
          <mxGeometry x="414" y="770" width="180" height="80" as="geometry" />
        </mxCell>
        <mxCell id="Ufr4is9PthtdORHLWl5A-62" style="edgeStyle=orthogonalEdgeStyle;rounded=0;orthogonalLoop=1;jettySize=auto;html=1;entryX=0;entryY=0.5;entryDx=0;entryDy=0;" edge="1" parent="1" source="Ufr4is9PthtdORHLWl5A-67" target="Ufr4is9PthtdORHLWl5A-71">
          <mxGeometry relative="1" as="geometry">
            <Array as="points">
              <mxPoint x="400" y="1060" />
            </Array>
          </mxGeometry>
        </mxCell>
        <mxCell id="Ufr4is9PthtdORHLWl5A-63" style="edgeStyle=orthogonalEdgeStyle;rounded=0;orthogonalLoop=1;jettySize=auto;html=1;entryX=0;entryY=0.5;entryDx=0;entryDy=0;" edge="1" parent="1" source="Ufr4is9PthtdORHLWl5A-67" target="Ufr4is9PthtdORHLWl5A-68">
          <mxGeometry relative="1" as="geometry" />
        </mxCell>
        <mxCell id="Ufr4is9PthtdORHLWl5A-65" style="edgeStyle=orthogonalEdgeStyle;rounded=0;orthogonalLoop=1;jettySize=auto;html=1;entryX=0;entryY=0.5;entryDx=0;entryDy=0;" edge="1" parent="1" source="Ufr4is9PthtdORHLWl5A-67" target="Ufr4is9PthtdORHLWl5A-69">
          <mxGeometry relative="1" as="geometry" />
        </mxCell>
        <mxCell id="Ufr4is9PthtdORHLWl5A-66" style="edgeStyle=orthogonalEdgeStyle;rounded=0;orthogonalLoop=1;jettySize=auto;html=1;entryX=0;entryY=0.5;entryDx=0;entryDy=0;" edge="1" parent="1" source="Ufr4is9PthtdORHLWl5A-67" target="Ufr4is9PthtdORHLWl5A-72">
          <mxGeometry relative="1" as="geometry" />
        </mxCell>
        <mxCell id="Ufr4is9PthtdORHLWl5A-67" value="Modelos" style="rounded=1;whiteSpace=wrap;html=1;" vertex="1" parent="1">
          <mxGeometry x="340" y="930" width="120" height="60" as="geometry" />
        </mxCell>
        <mxCell id="Ufr4is9PthtdORHLWl5A-68" value="Empresa.h/EMpresa.cpp" style="ellipse;whiteSpace=wrap;html=1;" vertex="1" parent="1">
          <mxGeometry x="422" y="1270" width="196" height="80" as="geometry" />
        </mxCell>
        <mxCell id="Ufr4is9PthtdORHLWl5A-69" value="Ususario.h/Usario.cpp" style="ellipse;whiteSpace=wrap;html=1;" vertex="1" parent="1">
          <mxGeometry x="422" y="1140" width="180" height="80" as="geometry" />
        </mxCell>
        <mxCell id="Ufr4is9PthtdORHLWl5A-71" value="models.pro" style="ellipse;whiteSpace=wrap;html=1;" vertex="1" parent="1">
          <mxGeometry x="424" y="1020" width="180" height="80" as="geometry" />
        </mxCell>
        <mxCell id="Ufr4is9PthtdORHLWl5A-72" value="Dpt.h/Dpt.cpp" style="ellipse;whiteSpace=wrap;html=1;" vertex="1" parent="1">
          <mxGeometry x="424" y="1390" width="180" height="80" as="geometry" />
        </mxCell>
        <mxCell id="Ufr4is9PthtdORHLWl5A-73" style="edgeStyle=orthogonalEdgeStyle;rounded=0;orthogonalLoop=1;jettySize=auto;html=1;entryX=0;entryY=0.5;entryDx=0;entryDy=0;" edge="1" parent="1" source="Ufr4is9PthtdORHLWl5A-77" target="Ufr4is9PthtdORHLWl5A-80">
          <mxGeometry relative="1" as="geometry">
            <Array as="points">
              <mxPoint x="410" y="1650" />
            </Array>
          </mxGeometry>
        </mxCell>
        <mxCell id="Ufr4is9PthtdORHLWl5A-74" style="edgeStyle=orthogonalEdgeStyle;rounded=0;orthogonalLoop=1;jettySize=auto;html=1;entryX=0;entryY=0.5;entryDx=0;entryDy=0;" edge="1" parent="1" source="Ufr4is9PthtdORHLWl5A-77" target="Ufr4is9PthtdORHLWl5A-78">
          <mxGeometry relative="1" as="geometry" />
        </mxCell>
        <mxCell id="Ufr4is9PthtdORHLWl5A-75" style="edgeStyle=orthogonalEdgeStyle;rounded=0;orthogonalLoop=1;jettySize=auto;html=1;entryX=0;entryY=0.5;entryDx=0;entryDy=0;" edge="1" parent="1" source="Ufr4is9PthtdORHLWl5A-77" target="Ufr4is9PthtdORHLWl5A-79">
          <mxGeometry relative="1" as="geometry" />
        </mxCell>
        <mxCell id="Ufr4is9PthtdORHLWl5A-76" style="edgeStyle=orthogonalEdgeStyle;rounded=0;orthogonalLoop=1;jettySize=auto;html=1;entryX=0;entryY=0.5;entryDx=0;entryDy=0;" edge="1" parent="1" source="Ufr4is9PthtdORHLWl5A-77" target="Ufr4is9PthtdORHLWl5A-81">
          <mxGeometry relative="1" as="geometry" />
        </mxCell>
        <mxCell id="Ufr4is9PthtdORHLWl5A-90" style="edgeStyle=orthogonalEdgeStyle;rounded=0;orthogonalLoop=1;jettySize=auto;html=1;entryX=0;entryY=0.5;entryDx=0;entryDy=0;" edge="1" parent="1" source="Ufr4is9PthtdORHLWl5A-77" target="Ufr4is9PthtdORHLWl5A-89">
          <mxGeometry relative="1" as="geometry" />
        </mxCell>
        <mxCell id="Ufr4is9PthtdORHLWl5A-91" style="edgeStyle=orthogonalEdgeStyle;rounded=0;orthogonalLoop=1;jettySize=auto;html=1;entryX=0;entryY=0.5;entryDx=0;entryDy=0;" edge="1" parent="1" source="Ufr4is9PthtdORHLWl5A-77" target="Ufr4is9PthtdORHLWl5A-87">
          <mxGeometry relative="1" as="geometry" />
        </mxCell>
        <mxCell id="Ufr4is9PthtdORHLWl5A-92" style="edgeStyle=orthogonalEdgeStyle;rounded=0;orthogonalLoop=1;jettySize=auto;html=1;entryX=0;entryY=0.5;entryDx=0;entryDy=0;" edge="1" parent="1" source="Ufr4is9PthtdORHLWl5A-77" target="Ufr4is9PthtdORHLWl5A-85">
          <mxGeometry relative="1" as="geometry" />
        </mxCell>
        <mxCell id="Ufr4is9PthtdORHLWl5A-93" style="edgeStyle=orthogonalEdgeStyle;rounded=0;orthogonalLoop=1;jettySize=auto;html=1;entryX=0;entryY=0.5;entryDx=0;entryDy=0;" edge="1" parent="1" source="Ufr4is9PthtdORHLWl5A-77" target="Ufr4is9PthtdORHLWl5A-84">
          <mxGeometry relative="1" as="geometry" />
        </mxCell>
        <mxCell id="Ufr4is9PthtdORHLWl5A-94" style="edgeStyle=orthogonalEdgeStyle;rounded=0;orthogonalLoop=1;jettySize=auto;html=1;entryX=0;entryY=0.5;entryDx=0;entryDy=0;" edge="1" parent="1" source="Ufr4is9PthtdORHLWl5A-77" target="Ufr4is9PthtdORHLWl5A-83">
          <mxGeometry relative="1" as="geometry" />
        </mxCell>
        <mxCell id="Ufr4is9PthtdORHLWl5A-77" value="Widgets" style="rounded=1;whiteSpace=wrap;html=1;" vertex="1" parent="1">
          <mxGeometry x="350" y="1520" width="120" height="60" as="geometry" />
        </mxCell>
        <mxCell id="Ufr4is9PthtdORHLWl5A-78" value="dptoform.h/.cpp/.ui" style="ellipse;whiteSpace=wrap;html=1;" vertex="1" parent="1">
          <mxGeometry x="432" y="1860" width="196" height="80" as="geometry" />
        </mxCell>
        <mxCell id="Ufr4is9PthtdORHLWl5A-79" value="admicompany.h/.cpp/.ui" style="ellipse;whiteSpace=wrap;html=1;" vertex="1" parent="1">
          <mxGeometry x="432" y="1730" width="180" height="80" as="geometry" />
        </mxCell>
        <mxCell id="Ufr4is9PthtdORHLWl5A-80" value="widgtes.pro" style="ellipse;whiteSpace=wrap;html=1;" vertex="1" parent="1">
          <mxGeometry x="434" y="1610" width="180" height="80" as="geometry" />
        </mxCell>
        <mxCell id="Ufr4is9PthtdORHLWl5A-81" value="empresaform.h/.cpp/.ui&lt;span style=&quot;color: rgba(0, 0, 0, 0); font-family: monospace; font-size: 0px; text-align: start; text-wrap-mode: nowrap;&quot;&gt;%3CmxGraphModel%3E%3Croot%3E%3CmxCell%20id%3D%220%22%2F%3E%3CmxCell%20id%3D%221%22%20parent%3D%220%22%2F%3E%3CmxCell%20id%3D%222%22%20style%3D%22edgeStyle%3DorthogonalEdgeStyle%3Brounded%3D0%3BorthogonalLoop%3D1%3BjettySize%3Dauto%3Bhtml%3D1%3BentryX%3D0%3BentryY%3D0.5%3BentryDx%3D0%3BentryDy%3D0%3B%22%20edge%3D%221%22%20source%3D%226%22%20target%3D%229%22%20parent%3D%221%22%3E%3CmxGeometry%20relative%3D%221%22%20as%3D%22geometry%22%3E%3CArray%20as%3D%22points%22%3E%3CmxPoint%20x%3D%22400%22%20y%3D%221060%22%2F%3E%3C%2FArray%3E%3C%2FmxGeometry%3E%3C%2FmxCell%3E%3CmxCell%20id%3D%223%22%20style%3D%22edgeStyle%3DorthogonalEdgeStyle%3Brounded%3D0%3BorthogonalLoop%3D1%3BjettySize%3Dauto%3Bhtml%3D1%3BentryX%3D0%3BentryY%3D0.5%3BentryDx%3D0%3BentryDy%3D0%3B%22%20edge%3D%221%22%20source%3D%226%22%20target%3D%227%22%20parent%3D%221%22%3E%3CmxGeometry%20relative%3D%221%22%20as%3D%22geometry%22%2F%3E%3C%2FmxCell%3E%3CmxCell%20id%3D%224%22%20style%3D%22edgeStyle%3DorthogonalEdgeStyle%3Brounded%3D0%3BorthogonalLoop%3D1%3BjettySize%3Dauto%3Bhtml%3D1%3BentryX%3D0%3BentryY%3D0.5%3BentryDx%3D0%3BentryDy%3D0%3B%22%20edge%3D%221%22%20source%3D%226%22%20target%3D%228%22%20parent%3D%221%22%3E%3CmxGeometry%20relative%3D%221%22%20as%3D%22geometry%22%2F%3E%3C%2FmxCell%3E%3CmxCell%20id%3D%225%22%20style%3D%22edgeStyle%3DorthogonalEdgeStyle%3Brounded%3D0%3BorthogonalLoop%3D1%3BjettySize%3Dauto%3Bhtml%3D1%3BentryX%3D0%3BentryY%3D0.5%3BentryDx%3D0%3BentryDy%3D0%3B%22%20edge%3D%221%22%20source%3D%226%22%20target%3D%2210%22%20parent%3D%221%22%3E%3CmxGeometry%20relative%3D%221%22%20as%3D%22geometry%22%2F%3E%3C%2FmxCell%3E%3CmxCell%20id%3D%226%22%20value%3D%22Modelos%22%20style%3D%22rounded%3D1%3BwhiteSpace%3Dwrap%3Bhtml%3D1%3B%22%20vertex%3D%221%22%20parent%3D%221%22%3E%3CmxGeometry%20x%3D%22340%22%20y%3D%22930%22%20width%3D%22120%22%20height%3D%2260%22%20as%3D%22geometry%22%2F%3E%3C%2FmxCell%3E%3CmxCell%20id%3D%227%22%20value%3D%22Empresa.h%2FEMpresa.cpp%22%20style%3D%22ellipse%3BwhiteSpace%3Dwrap%3Bhtml%3D1%3B%22%20vertex%3D%221%22%20parent%3D%221%22%3E%3CmxGeometry%20x%3D%22422%22%20y%3D%221270%22%20width%3D%22196%22%20height%3D%2280%22%20as%3D%22geometry%22%2F%3E%3C%2FmxCell%3E%3CmxCell%20id%3D%228%22%20value%3D%22Ususario.h%2FUsario.cpp%22%20style%3D%22ellipse%3BwhiteSpace%3Dwrap%3Bhtml%3D1%3B%22%20vertex%3D%221%22%20parent%3D%221%22%3E%3CmxGeometry%20x%3D%22422%22%20y%3D%221140%22%20width%3D%22180%22%20height%3D%2280%22%20as%3D%22geometry%22%2F%3E%3C%2FmxCell%3E%3CmxCell%20id%3D%229%22%20value%3D%22models.pro%22%20style%3D%22ellipse%3BwhiteSpace%3Dwrap%3Bhtml%3D1%3B%22%20vertex%3D%221%22%20parent%3D%221%22%3E%3CmxGeometry%20x%3D%22424%22%20y%3D%221020%22%20width%3D%22180%22%20height%3D%2280%22%20as%3D%22geometry%22%2F%3E%3C%2FmxCell%3E%3CmxCell%20id%3D%2210%22%20value%3D%22Dpt.h%2FDpt.cpp%22%20style%3D%22ellipse%3BwhiteSpace%3Dwrap%3Bhtml%3D1%3B%22%20vertex%3D%221%22%20parent%3D%221%22%3E%3CmxGeometry%20x%3D%22424%22%20y%3D%221390%22%20width%3D%22180%22%20height%3D%2280%22%20as%3D%22geometry%22%2F%3E%3C%2FmxCell%3E%3C%2Froot%3E%3C%2FmxGraphModel%3E&lt;/span&gt;" style="ellipse;whiteSpace=wrap;html=1;" vertex="1" parent="1">
          <mxGeometry x="434" y="1980" width="180" height="80" as="geometry" />
        </mxCell>
        <mxCell id="Ufr4is9PthtdORHLWl5A-83" value="guees.h/.cpp/.ui" style="ellipse;whiteSpace=wrap;html=1;" vertex="1" parent="1">
          <mxGeometry x="432" y="2110" width="180" height="80" as="geometry" />
        </mxCell>
        <mxCell id="Ufr4is9PthtdORHLWl5A-84" value="main.cpp" style="ellipse;whiteSpace=wrap;html=1;" vertex="1" parent="1">
          <mxGeometry x="432" y="2250" width="180" height="80" as="geometry" />
        </mxCell>
        <mxCell id="Ufr4is9PthtdORHLWl5A-85" value="mainadmi.h/.cpp/.ui" style="ellipse;whiteSpace=wrap;html=1;" vertex="1" parent="1">
          <mxGeometry x="438" y="2370" width="180" height="80" as="geometry" />
        </mxCell>
        <mxCell id="Ufr4is9PthtdORHLWl5A-86" value="mainwindow.h/.cpp/.ui" style="ellipse;whiteSpace=wrap;html=1;" vertex="1" parent="1">
          <mxGeometry x="440" y="2470" width="180" height="80" as="geometry" />
        </mxCell>
        <mxCell id="Ufr4is9PthtdORHLWl5A-87" value="userform.h/.cpp/.ui" style="ellipse;whiteSpace=wrap;html=1;" vertex="1" parent="1">
          <mxGeometry x="450" y="2590" width="180" height="80" as="geometry" />
        </mxCell>
        <mxCell id="Ufr4is9PthtdORHLWl5A-89" value="users.h/.cpp/.ui" style="ellipse;whiteSpace=wrap;html=1;" vertex="1" parent="1">
          <mxGeometry x="450" y="2710" width="180" height="80" as="geometry" />
        </mxCell>
      </root>
    </mxGraphModel>
  </diagram>
</mxfile>
